:FULLY-SPECIFIED
:FORCE-ALL-JOINTS-BE-3DOF
:DEGREES
1529
root -4.72291 15.3391 19.7398 -171.935 -9.24755 -174.126
lfemur -48.2687 17.0248 -10.2374
ltibia 88.2598 -0 0
lfoot -16.6173 28.444 0.0270019
ltoes -12.8242 0 0
rfemur -33.2753 -5.58574 18.9925
rtibia 54.8892 -0 0
rfoot -17.8443 -23.1913 -0.0407756
rtoes -31.7205 0 0
lowerback 17.1834 0.613299 6.0488
upperback -1.284 2.34952 3.50414
thorax -11.1464 0.837647 -0.211666
lowerneck -4.11993 7.74824 4.65174
upperneck 1.41125 10.3845 -8.64696
head 1.81427 5.08079 -3.21119
lclavicle 5.80451e-14 4.37326e-14 0
lhumerus 6.70677 -17.6195 79.1852
lradius 74.1543 -0 0
lwrist -17.7847 0 0
lhand -31.0095 69.8568 -0.174669
lfingers 7.12502 -0 0
lthumb 0.0681391 146.6 -4.2818
rclavicle 5.80451e-14 4.37326e-14 0
rhumerus -55.2354 33.9467 -89.2965
rradius 104.008 -0 0
rwrist -54.6333 0 0
rhand 6.72474 -32.1195 0.150338
rfingers 7.12502 -0 0
rthumb 32.0139 -59.3219 0.145949
1530
root -4.68599 15.3471 19.8079 -172.024 -11.376 -174.312
lfemur -46.2047 17.3427 -8.50307
ltibia 86.4019 -0 0
lfoot -16.673 28.3743 0.01155
ltoes -12.8478 0 0
rfemur -33.2296 -6.22163 18.5146
rtibia 55.3648 -0 0
rfoot -17.7937 -23.213 -0.0485441
rtoes -32.0286 0 0
lowerback 17.0076 0.629803 5.69756
upperback -1.27164 2.26991 3.49863
thorax -11.0302 0.817201 0.00512923
lowerneck -4.25745 7.30333 4.30672
upperneck 1.29999 9.76666 -8.23598
head 1.73494 4.77056 -3.04457
lclavicle 5.80451e-14 4.37326e-14 0
lhumerus 3.34003 -13.4757 79.2004
lradius 70.5263 -0 0
lwrist -19.3602 0 0
lhand -31.2304 70.6298 -0.129371
lfingers 7.12502 -0 0
lthumb -1.29122 166.416 -4.49785
rclavicle 5.80451e-14 4.37326e-14 0
rhumerus -55.3127 32.8263 -89.5506
rradius 103.688 -0 0
rwrist -55.1071 0 0
rhand 6.82518 -31.5665 0.120979
rfingers 7.12502 -0 0
rthumb 32.1088 -58.7426 0.119579
1531
root -4.64908 15.3551 19.876 -172.12 -14.434 -174.582
lfemur -44.0566 17.62 -6.92665
ltibia 84.4304 -0 0
lfoot -16.7843 28.233 0.000291641
ltoes -13.0978 0 0
rfemur -33.2145 -6.93557 17.9986
rtibia 56.1447 -0 0
rfoot -17.6718 -23.2251 -0.0495881
rtoes -32.1358 0 0
lowerback 16.8216 0.631967 5.27048
upperback -1.25758 2.15766 3.49939
thorax -10.9043 0.785559 0.280783
lowerneck -4.3978 6.78784 3.90571
upperneck 1.19439 9.0583 -7.77654
head 1.65437 4.41494 -2.85618
lclavicle 5.80451e-14 4.37326e-14 0
lhumerus -0.0137836 -9.29685 78.9748
lradius 66.6951 -0 0
lwrist -20.9326 0 0
lhand -31.4281 71.1933 -0.0886873
lfingers 7.12502 -0 0
lthumb -2.74174 -172.391 -4.1846
rclavicle 5.80451e-14 4.37326e-14 0
rhumerus -55.6604 31.5499 -90.0422
rradius 103.561 -0 0
rwrist -55.7854 0 0
rhand 6.95591 -30.9842 0.0913965
rfingers 7.12502 -0 0
rthumb 32.2327 -58.1306 0.0922018
1532
root -4.61216 15.3632 19.9441 -172.21 -18.5824 -174.941
lfemur -41.8449 17.8769 -5.5497
ltibia 82.372 -0 0
lfoot -16.9687 28.0166 -0.00571829
ltoes -13.5978 0 0
rfemur -33.2198 -7.7358 17.4475
rtibia 57.2559 -0 0
rfoot -17.4683 -23.236 -0.0427018
rtoes -32.0244 0 0
lowerback 16.6235 0.617012 4.76412
upperback -1.24224 2.00932 3.5096
thorax -10.7677 0.741112 0.621734
lowerneck -4.53811 6.19746 3.44682
upperneck 1.09274 8.25415 -7.26729
head 1.57206 4.01136 -2.64531
lclavicle 5.80451e-14 4.37326e-14 0
lhumerus -3.3783 -5.0925 78.5122
lradius 62.6376 -0 0
lwrist -22.5217 0 0
lhand -31.6053 71.5351 -0.0532808
lfingers 7.12502 -0 0
lthumb -4.05123 -149.915 -3.27645
rclavicle 5.80451e-14 4.37326e-14 0
rhumerus -56.3339 30.0787 -90.8056
rradius 103.663 -0 0
rwrist -56.7232 0 0
rhand 7.12743 -30.3743 0.0615948
rfingers 7.12502 -0 0
rthumb 32.3959 -57.4866 0.0635592
1533
root -4.57525 15.3712 20.0122 -172.275 -23.9819 -175.399
lfemur -39.589 18.1383 -4.41232
ltibia 80.2538 -0 0
lfoot -17.2438 27.7215 -0.00584145
ltoes -14.3715 0 0
rfemur -33.2356 -8.63044 16.8642
rtibia 58.7255 -0 0
rfoot -17.1727 -23.2544 -0.0266298
rtoes -31.6804 0 0
lowerback 16.4116 0.582058 4.1751
upperback -1.22606 1.82143 3.5324
thorax -10.6198 0.682177 1.0344
lowerneck -4.67523 5.52786 2.92817
upperneck 0.992937 7.34897 -6.70683
head 1.48746 3.5573 -2.41125
lclavicle 5.80451e-14 4.37326e-14 0
lhumerus -6.77699 -0.872316 77.8123
lradius 58.3305 -0 0
lwrist -24.1472 0 0
lhand -31.765 71.6429 -0.0236174
lfingers 7.12502 -0 0
lthumb -4.94451 -126.241 -1.81964
rclavicle 5.80451e-14 4.37326e-14 0
rhumerus -57.3792 28.3678 -91.8646
rradius 104.033 -0 0
rwrist -57.9755 0 0
rhand 7.35027 -29.739 0.0313114
rfingers 7.12502 -0 0
rthumb 32.6082 -56.8113 0.0331087
1534
root -4.53833 15.3792 20.0803 547.722 -30.793 544.022
lfemur -37.3075 18.4331 -3.55288
ltibia 78.1027 0 0
lfoot -17.6273 27.3442 0
ltoes -15.4423 0 0
rfemur -33.2513 -9.62745 16.2511
rtibia 60.5806 0 0
rfoot -16.7747 -23.2886 0
rtoes -31.0872 0 0
lowerback 16.1844 0.524106 3.50005
upperback -1.20955 1.59053 3.57097
thorax -10.46 0.606985 1.52519
lowerneck -4.80562 4.77477 2.3478
upperneck 0.892484 6.33753 -6.09375
head 1.39991 3.05021 -2.15324
lclavicle 5.80451e-14 4.37326e-14 0
lhumerus -10.234 3.35353 76.8702
lradius 53.7508 0 0
lwrist -25.8288 0 0
lhand -31.9097 71.5048 0
lfingers 7.12502 0 0
lthumb -5.16151 -101.422 0
rclavicle 5.80451e-14 4.37326e-14 0
rhumerus -58.8316 26.3651 -93.231
rradius 104.71 0 0
rwrist -59.5973 0 0
rhand 7.63495 -29.0801 0
rfingers 7.12502 0 0
rthumb 32.8799 -56.1055 0
1535
root -4.65266 15.3866 20.0946 -172.156 -37.715 -176.643
lfemur -35.2478 18.7488 -2.99912
ltibia 76.0674 -0 0
lfoot -17.9979 26.931 0.00351728
ltoes -16.6506 0 0
rfemur -33.3113 -10.6365 15.6919
rtibia 62.7475 -0 0
rfoot -16.436 -23.3711 0.00323412
rtoes -30.3545 0 0
lowerback 15.9811 0.455925 2.82287
upperback -1.18972 1.35175 3.60665
thorax -10.3095 0.527201 2.01601
lowerneck -4.92248 4.04689 1.78796
upperneck 0.782432 5.36342 -5.51603
head 1.31286 2.5626 -1.90665
lclavicle -3.99557e-14 -1.59028e-14 0
lhumerus -13.3579 7.14539 75.7475
lradius 49.3943 -0 0
lwrist -27.344 0 0
lhand -32.0372 71.1312 0.0170567
lfingers 7.12502 -0 0
lthumb -4.64768 -77.8412 1.62108
rclavicle -3.99557e-14 -1.59028e-14 0
rhumerus -60.5721 24.4017 -94.7121
rradius 105.625 -0 0
rwrist -61.3162 0 0
rhand 7.7467 -28.4351 -0.0218839
rfingers 7.12502 -0 0
rthumb 33.0158 -55.5747 -0.0846185
1536
root -4.767 15.3939 20.1089 -171.889 -43.4177 -177.349
lfemur -33.6179 19.0579 -2.73901
ltibia 74.262 -0 0
lfoot -18.2318 26.529 -0.00166592
ltoes -17.8247 0 0
rfemur -33.4656 -11.5633 15.2605
rtibia 65.1087 -0 0
rfoot -16.3041 -23.5172 -0.0461659
rtoes -29.5982 0 0
lowerback 15.838 0.392803 2.22382
upperback -1.16373 1.14056 3.6201
thorax -10.1881 0.455553 2.42995
lowerneck -5.02417 3.44659 1.32418
upperneck 0.661915 4.56119 -5.05369
head 1.23138 2.16227 -1.70416
lclavicle -3.99557e-14 -1.59028e-14 0
lhumerus -15.7695 10.1147 74.6012
lradius 45.7455 -0 0
lwrist -28.4694 0 0
lhand -32.1406 70.5485 0.0261901
lfingers 7.12502 -0 0
lthumb -3.76643 -57.6624 2.64768
rclavicle -3.99557e-14 -1.59028e-14 0
rhumerus -62.4417 22.8229 -96.1165
rradius 106.666 -0 0
rwrist -62.8252 0 0
rhand 7.48127 -27.84 -0.0210811
rfingers 7.12502 -0 0
rthumb 32.844 -55.3911 -0.255903
